<svg xmlns="http://www.w3.org/2000/svg" viewBox="0 0 500 500"><g id="freepik--background-simple--inject-3"><path d="M91.11,108.81C119,49.36,218.17,57.74,256.43,99.55s50.7,68.6,85.21,53,78.52-11.44,81,38.17S384.77,299,320.59,316.31s-64.16,78.76-149.1,66.37c-46.31-6.75-47.36-56.86-40.82-98.3S58.74,177.75,91.11,108.81Z" style="fill:#14B8A6"></path><path d="M91.11,108.81C119,49.36,218.17,57.74,256.43,99.55s50.7,68.6,85.21,53,78.52-11.44,81,38.17S384.77,299,320.59,316.31s-64.16,78.76-149.1,66.37c-46.31-6.75-47.36-56.86-40.82-98.3S58.74,177.75,91.11,108.81Z" style="fill:#fff;opacity:0.9"></path></g><g id="freepik--window-3--inject-3"><path d="M388,193.47V318.73l-20.86,20.86H284.66a3.22,3.22,0,0,1-3.21-3.22V193.47a3.22,3.22,0,0,1,3.21-3.22h100.1A3.22,3.22,0,0,1,388,193.47Z" style="fill:#14B8A6"></path><path d="M388,198.94V318.73l-20.86,20.86H284.66a3.22,3.22,0,0,1-3.21-3.22V198.94Z" style="fill:#fff;opacity:0.6000000000000001;isolation:isolate"></path><path d="M385.2,194.23a1.56,1.56,0,1,1-1.56-1.55A1.55,1.55,0,0,1,385.2,194.23Z" style="fill:#fff;opacity:0.6000000000000001;isolation:isolate"></path><path d="M379.26,194.23a1.55,1.55,0,1,1-1.55-1.55A1.54,1.54,0,0,1,379.26,194.23Z" style="fill:#fff;opacity:0.6000000000000001;isolation:isolate"></path><path d="M373.33,194.23a1.56,1.56,0,1,1-1.55-1.55A1.55,1.55,0,0,1,373.33,194.23Z" style="fill:#fff;opacity:0.6000000000000001;isolation:isolate"></path><path d="M346.2,208.59H289.1a1,1,0,0,1,0-2h57.1a1,1,0,0,1,0,2Z" style="fill:#14B8A6"></path><path d="M330.06,214.06h-41a1,1,0,0,1,0-2h41a1,1,0,0,1,0,2Z" style="fill:#14B8A6"></path><path d="M374.33,298.52h-73a1,1,0,1,1,0-2h73a1,1,0,0,1,0,2Z" style="fill:#14B8A6"></path><path d="M362.12,320.37h-73a1,1,0,0,1,0-2h73a1,1,0,0,1,0,2Z" style="fill:#14B8A6"></path><path d="M374.33,304H289.1a1,1,0,0,1,0-2h85.23a1,1,0,0,1,0,2Z" style="fill:#14B8A6"></path><path d="M374.33,309.45H289.1a1,1,0,0,1,0-2h85.23a1,1,0,0,1,0,2Z" style="fill:#14B8A6"></path><path d="M374.33,314.91H289.1a1,1,0,0,1,0-2h85.23a1,1,0,0,1,0,2Z" style="fill:#14B8A6"></path><polygon points="387.98 318.73 367.12 339.59 367.12 318.73 387.98 318.73" style="fill:#14B8A6;opacity:0.5"></polygon><rect x="382.09" y="198.94" width="5.89" height="119.79" style="opacity:0.4;isolation:isolate"></rect><path d="M385,261.53h0a2.17,2.17,0,0,1-2.17-2.17V247.12A2.17,2.17,0,0,1,385,245h0a2.17,2.17,0,0,1,2.17,2.17v12.24A2.17,2.17,0,0,1,385,261.53Z" style="fill:#14B8A6"></path><path d="M374.33,268.52h-73a1,1,0,1,1,0-2h73a1,1,0,0,1,0,2Z" style="fill:#14B8A6"></path><path d="M362.12,290.37h-73a1,1,0,0,1,0-2h73a1,1,0,0,1,0,2Z" style="fill:#14B8A6"></path><path d="M374.33,274H289.1a1,1,0,0,1,0-2h85.23a1,1,0,0,1,0,2Z" style="fill:#14B8A6"></path><path d="M374.33,279.45H289.1a1,1,0,0,1,0-2h85.23a1,1,0,0,1,0,2Z" style="fill:#14B8A6"></path><path d="M374.33,284.91H289.1a1,1,0,0,1,0-2h85.23a1,1,0,0,1,0,2Z" style="fill:#14B8A6"></path><rect x="288.84" y="220.57" width="85.48" height="31.9" style="fill:#14B8A6"></rect><polygon points="288.84 247.35 291.17 247.35 291.17 241.55 293.85 241.55 293.85 230.1 297.59 230.1 297.59 237.15 302.73 237.15 302.73 246.52 308.86 246.52 308.86 239.99 313.93 239.99 317.28 236.63 317.28 228.86 319.33 228.86 319.33 239.99 324.49 239.99 324.49 243.95 329.83 243.95 329.83 223.75 331.31 222.27 331.31 227.81 334.72 227.81 334.72 230.3 337.99 233.58 337.99 239.49 342.69 239.49 342.69 234.81 354.95 234.81 354.95 231.32 357.72 231.32 357.72 225.22 358.71 225.22 358.71 234.81 360.27 234.81 363.8 231.28 367.12 231.28 367.12 228.09 368.8 228.09 368.8 231.32 370.97 231.32 370.97 244.54 373.33 244.54 373.33 237.94 374.33 238 374.33 220.57 288.84 220.57 288.84 247.35" style="opacity:0.2;isolation:isolate"></polygon><path d="M374.33,257.52h-23a1,1,0,1,1,0-2h23a1,1,0,1,1,0,2Z" style="fill:#14B8A6"></path><path d="M322.7,190.25V293.77L307,309.51H281.45v-116a3.22,3.22,0,0,1,3.21-3.22Z" style="opacity:0.2;isolation:isolate"></path><path d="M385,261.53h0a2.17,2.17,0,0,1-2.17-2.17V247.12A2.17,2.17,0,0,1,385,245h0a2.17,2.17,0,0,1,2.17,2.17v12.24A2.17,2.17,0,0,1,385,261.53Z" style="fill:#fff;opacity:0.4;isolation:isolate"></path></g><g id="freepik--window-1--inject-3"><path d="M261.74,209.08V334.34L240.88,355.2H158.42a3.22,3.22,0,0,1-3.21-3.22V209.08a3.22,3.22,0,0,1,3.21-3.22h100.1A3.22,3.22,0,0,1,261.74,209.08Z" style="fill:#14B8A6"></path><path d="M261.74,214.56V334.35l-20.86,20.86H158.42a3.22,3.22,0,0,1-3.21-3.22V214.56Z" style="fill:#fff;opacity:0.6000000000000001;isolation:isolate"></path><path d="M259,209.85a1.56,1.56,0,1,1-1.56-1.55A1.55,1.55,0,0,1,259,209.85Z" style="fill:#fff;opacity:0.6000000000000001;isolation:isolate"></path><path d="M253,209.85a1.56,1.56,0,1,1-1.55-1.55A1.54,1.54,0,0,1,253,209.85Z" style="fill:#fff;opacity:0.6000000000000001;isolation:isolate"></path><path d="M247.09,209.85a1.56,1.56,0,1,1-1.56-1.55A1.55,1.55,0,0,1,247.09,209.85Z" style="fill:#fff;opacity:0.6000000000000001;isolation:isolate"></path><path d="M180.6,224.75H162.86a1,1,0,0,1,0-2H180.6a1,1,0,1,1,0,2Z" style="fill:#14B8A6"></path><path d="M189,230.21h-26.1a1,1,0,0,1,0-2H189a1,1,0,0,1,0,2Z" style="fill:#14B8A6"></path><path d="M180.89,235.67h-18a1,1,0,0,1,0-2h18a1,1,0,0,1,0,2Z" style="fill:#14B8A6"></path><path d="M248.08,325.14h-73a1,1,0,0,1,0-2h73a1,1,0,1,1,0,2Z" style="fill:#14B8A6"></path><path d="M208.08,330.6H162.86a1,1,0,0,1,0-2h45.22a1,1,0,1,1,0,2Z" style="fill:#14B8A6"></path><polygon points="261.74 334.35 240.88 355.21 240.88 334.35 261.74 334.35" style="fill:#14B8A6;opacity:0.5"></polygon><rect x="255.85" y="214.56" width="5.89" height="119.79" style="opacity:0.4;isolation:isolate"></rect><path d="M258.79,326.15h0a2.17,2.17,0,0,1-2.17-2.17V311.74a2.17,2.17,0,0,1,2.17-2.17h0a2.17,2.17,0,0,1,2.17,2.17V324A2.17,2.17,0,0,1,258.79,326.15Z" style="fill:#14B8A6"></path><path d="M248.08,224.75H234.35a1,1,0,0,1,0-2h13.73a1,1,0,1,1,0,2Z" style="fill:#14B8A6"></path><path d="M248.08,230.21H241a1,1,0,0,1,0-2h7.1a1,1,0,0,1,0,2Z" style="fill:#14B8A6"></path><path d="M248.08,250.14h-73a1,1,0,0,1,0-2h73a1,1,0,1,1,0,2Z" style="fill:#14B8A6"></path><path d="M248.08,255.6H162.86a1,1,0,0,1,0-2h85.22a1,1,0,0,1,0,2Z" style="fill:#14B8A6"></path><path d="M198.08,261.06H162.86a1,1,0,0,1,0-2h35.22a1,1,0,0,1,0,2Z" style="fill:#14B8A6"></path><rect x="177" y="268.31" width="33.58" height="9" style="fill:#14B8A6;opacity:0.7000000000000001"></rect><rect x="177" y="279.31" width="15.21" height="33.23" style="fill:#14B8A6;opacity:0.30000000000000004"></rect><rect x="212.57" y="279.31" width="17.47" height="33.23" style="fill:#14B8A6;opacity:0.30000000000000004"></rect><rect x="212.57" y="268.31" width="35.51" height="9" style="fill:#14B8A6;opacity:0.7000000000000001"></rect><rect x="232.05" y="279.31" width="16.04" height="33.23" style="fill:#14B8A6;opacity:0.30000000000000004"></rect><rect x="162.86" y="279.31" width="12.14" height="33.23" style="fill:#14B8A6;opacity:0.5"></rect><rect x="162.86" y="268.31" width="12.14" height="9" style="fill:#14B8A6"></rect><rect x="194.21" y="279.31" width="16.36" height="33.23" style="fill:#14B8A6;opacity:0.30000000000000004"></rect><path d="M258.79,326.15h0a2.17,2.17,0,0,1-2.17-2.17V311.74a2.17,2.17,0,0,1,2.17-2.17h0a2.17,2.17,0,0,1,2.17,2.17V324A2.17,2.17,0,0,1,258.79,326.15Z" style="fill:#fff;opacity:0.4;isolation:isolate"></path><path d="M261.74,209.08v104.2H201.41a3.22,3.22,0,0,1-3.21-3.22V205.86h60.32A3.22,3.22,0,0,1,261.74,209.08Z" style="opacity:0.2;isolation:isolate"></path></g><g id="freepik--Character--inject-3"><path d="M141.36,333.12s2.46,22.14,3.26,24.78,12.07,16.74,12.07,16.74l-3.19,1.67s-12-12.34-13.91-16-4.77-22.76-4.77-22.76Z" style="fill:#ebb376"></path><path d="M139.11,323.26c4.15,2.2,5.51,32.93,5.51,32.93l2.1,3.23L140.34,364a57.34,57.34,0,0,1-4-7.92c-1.27-3.42-4.28-20.3-4.28-20.3Z" style="fill:#263238"></path><path d="M139.11,323.26c4.15,2.2,5.51,32.93,5.51,32.93l2.1,3.23L140.34,364a57.34,57.34,0,0,1-4-7.92c-1.27-3.42-4.28-20.3-4.28-20.3Z" style="fill:#fff;opacity:0.1;isolation:isolate"></path><polygon points="139.4 363.97 146.72 358.17 148.29 361.46 141.54 366.27 139.4 363.97" style="fill:#14B8A6"></polygon><polygon points="139.4 363.97 146.72 358.17 148.29 361.46 141.54 366.27 139.4 363.97" style="fill:#fff;opacity:0.4;isolation:isolate"></polygon><path d="M122.75,362.88l7.48,11.83c14.83-3.45,62.36-10.7,68.19,5.61,7.26,20.26-45.17,36.42-74.18,37.41S71.94,402.2,90.29,359.9Z" style="fill:#14B8A6"></path><path d="M122.75,362.88l7.48,11.83c14.83-3.45,62.36-10.7,68.19,5.61,7.26,20.26-45.17,36.42-74.18,37.41S71.94,402.2,90.29,359.9Z" style="opacity:0.2;isolation:isolate"></path><path d="M190,409a.2.2,0,0,1-.21,0,.15.15,0,0,1-.05-.18c.09-.33,1.05-3.12,2-3.41a.6.6,0,0,1,.58.17,1,1,0,0,1,.35.94,2.63,2.63,0,0,1-.91,1.31A11.21,11.21,0,0,1,190,409Zm.25-.54a4.18,4.18,0,0,0,2.07-2,.64.64,0,0,0-.25-.64.22.22,0,0,0-.23-.07,1,1,0,0,0-.22.13A8.17,8.17,0,0,0,190.27,408.43Z" style="fill:#14B8A6"></path><path d="M190,409a.14.14,0,0,1-.18-.05c-.09-.08-1.43-1.77-1.21-2.91a1.06,1.06,0,0,1,.46-.7.62.62,0,0,1,.77-.07c.71.49.62,2.76.28,3.61l0,.09Zm-.76-3.31a.71.71,0,0,0-.23.4,3.93,3.93,0,0,0,.89,2.33c.22-1,.15-2.55-.26-2.84,0,0-.13-.09-.34.06l-.06.05Z" style="fill:#14B8A6"></path><path d="M139,413.72a.18.18,0,0,1,.19-.09.15.15,0,0,1,.13.13c.07.33.58,3.24-.13,4a.56.56,0,0,1-.58.13,1,1,0,0,1-.76-.65,2.59,2.59,0,0,1,.16-1.58A11.05,11.05,0,0,1,139,413.72Zm0,.59a4.18,4.18,0,0,0-.85,2.74.64.64,0,0,0,.53.44.19.19,0,0,0,.23-.05.61.61,0,0,0,.13-.22A8.13,8.13,0,0,0,139.06,414.31Z" style="fill:#14B8A6"></path><polygon points="158.01 399.04 146.07 403.29 140.34 405.33 141.81 411.61 147.36 410.42 160.92 407.53 158.01 399.04" style="fill:#ebb376"></polygon><path d="M143.37,411.9l-1-7.4a.74.74,0,0,0-.86-.63l-3.65.61s-5,.47-6,1.74c-2.89,3.73-1.09,20.15.84,20.73.7.21,1.44-.75,1.75-1.42,1-2.12,2.69-7.65,3.52-9.41,1-2.05,3.64-3.05,4.84-3.41A.74.74,0,0,0,143.37,411.9Z" style="fill:#263238"></path><path d="M139.05,413.66a.17.17,0,0,1,.18,0c.12,0,2.11.86,2.47,2a1.11,1.11,0,0,1-.07.84.63.63,0,0,1-.64.44c-.85-.09-1.88-2.12-2-3l0-.09A.18.18,0,0,1,139.05,413.66Zm2.27,2.54a.76.76,0,0,0,0-.47c-.23-.7-1.34-1.32-1.91-1.6.28.95,1.11,2.31,1.61,2.36,0,0,.15,0,.26-.21l0-.08Z" style="fill:#14B8A6"></path><polygon points="158.01 399.04 146.07 403.29 147.36 410.42 160.92 407.53 158.01 399.04" style="opacity:0.2;isolation:isolate"></polygon><polygon points="149.47 411.5 152.91 411.74 150.61 399.93 146.72 402.09 149.47 411.5" style="fill:#14B8A6"></polygon><polygon points="149.47 411.5 152.91 411.74 150.61 399.93 146.72 402.09 149.47 411.5" style="fill:#fff;opacity:0.6000000000000001;isolation:isolate"></polygon><path d="M99.68,365.6l17.88,19.83s19.77-.44,43.77,11.29c0,0,25.75-10.64,28.12-19.48,3.1-11.58-59.22-2.53-59.22-2.53Z" style="opacity:0.2;isolation:isolate"></path><path d="M183.54,379.6v2.94c0,.75-.89,1.06-1.63,1.06H123.2c-.75,0-1.66-.31-1.66-1.06V379.6Z" style="fill:#263238"></path><path d="M183.54,379.6v2.94c0,.75-.89,1.06-1.63,1.06H123.2c-.75,0-1.66-.31-1.66-1.06V379.6Z" style="fill:#fff;opacity:0.4;isolation:isolate"></path><path d="M183.54,379.6v2.94c0,.75-.89,1.06-1.63,1.06H143.19c-.75,0-1.65-.31-1.65-1.06V379.6Z" style="opacity:0.2;isolation:isolate"></path><path d="M193.36,349.1l-7,31.7a2.39,2.39,0,0,1-2.27,1.8H145.93a1.53,1.53,0,0,1-1.43-2l7-31.46a2.17,2.17,0,0,1,2.26-1.55h38.18C193,347.6,193.59,348.07,193.36,349.1Z" style="fill:#263238"></path><path d="M193.36,349.1l-7,31.7a2.39,2.39,0,0,1-2.27,1.8H147.23a1.55,1.55,0,0,1-1.45-2l7-31.46A2.19,2.19,0,0,1,155,347.6h36.88C193,347.6,193.59,348.07,193.36,349.1Z" style="fill:#fff;opacity:0.4;isolation:isolate"></path><path d="M174.54,365.21h0c0,2.72-2.91,4.92-5,4.92s-3.4-2.2-2.79-4.92,2.73-4.83,4.82-4.91c-.61,2.72.69,4.91,2.82,4.91A1,1,0,0,0,174.54,365.21Z" style="opacity:0.2;isolation:isolate"></path><polygon points="166.3 412.62 178.8 414.68 184.8 415.67 186.55 409.47 181.12 407.81 167.86 403.78 166.3 412.62" style="fill:#ebb376"></polygon><path d="M185.33,408.45l-2.7,7a.73.73,0,0,0,.44,1l3.49,1.23s4.57,2,6.05,1.36c4.33-1.86,10.7-17.11,9.3-18.54-.51-.53-1.63,0-2.22.39-1.88,1.38-6.06,5.4-7.63,6.53-1.85,1.32-4.67.91-5.89.65A.72.72,0,0,0,185.33,408.45Z" style="fill:#263238"></path><polygon points="166.3 412.62 178.8 414.68 181.12 407.81 167.86 403.78 166.3 412.62" style="opacity:0.2;isolation:isolate"></polygon><path d="M179,406.52s-51-28.66-68.56-27.84-20.13,16.32-12.87,26,20.66,12.06,20.66,12.06-9.13-12.89-7.81-16.52,6.48,1.44,6.48,1.44S148.94,412,177,414.42Z" style="fill:#14B8A6"></path><polygon points="179.79 405.73 176.91 403.79 173.2 415.18 177.65 415.18 179.79 405.73" style="fill:#14B8A6"></polygon><polygon points="179.79 405.73 176.91 403.79 173.2 415.18 177.65 415.18 179.79 405.73" style="fill:#fff;opacity:0.6000000000000001;isolation:isolate"></polygon><path d="M90.29,359.9l32.47,3s5.09-10.54,9-14.65,7.36-25,7.36-25a69.34,69.34,0,0,0-8.14-3.32,80.68,80.68,0,0,0-24.84-4.18H106c-2.42,0-3.82.12-3.82.12a6.9,6.9,0,0,0-2.31,2.63c-3.48,6-6.25,20-7.89,30.05C90.87,355.05,90.29,359.9,90.29,359.9Z" style="fill:#263238"></path><path d="M91.93,348.56c7.16-3.28,16.93-8.83,16.42-14.46-.55-6.18-5.56-12.4-8.53-15.59C96.34,324.51,93.57,338.51,91.93,348.56Z" style="opacity:0.2;isolation:isolate"></path><path d="M107.72,315.79s3.7,12.18,13.82,13.5,11.8-8.5,11.8-8.5S120.31,313.64,107.72,315.79Z" style="fill:#263238"></path><path d="M107.72,315.79s3.7,12.18,13.82,13.5,11.8-8.5,11.8-8.5S120.31,313.64,107.72,315.79Z" style="fill:#fff;opacity:0.1;isolation:isolate"></path><path d="M109.84,316.13s4.77,11.28,13.37,11.28,8.87-6.33,8.87-6.33S123.48,315.44,109.84,316.13Z" style="fill:#14B8A6"></path><path d="M109.84,316.13s4.77,11.28,13.37,11.28,8.87-6.33,8.87-6.33S123.48,315.44,109.84,316.13Z" style="fill:#fff;opacity:0.4;isolation:isolate"></path><path d="M125.41,317.89c.06,2,1.21,2.5,1.21,2.5a4.1,4.1,0,0,1-4.45,4.73c-6.37-.65-8.38-8.32-8.38-8.32,4.63-1.84,5.67-6.95,5.87-10a16.8,16.8,0,0,0,0-2.38l8.66,5.45a30.32,30.32,0,0,0-1.93,3.79A10.84,10.84,0,0,0,125.41,317.89Z" style="fill:#ebb376"></path><path d="M127.79,309.2a31.44,31.44,0,0,0-1.54,4,10.74,10.74,0,0,0-.54,4.29c-4.87.38-6.81-10.37-6.81-10.37l0-.07a16.26,16.26,0,0,0-.24-2.37Z" style="opacity:0.2;isolation:isolate"></path><path d="M133.33,285.18s6.36-7.32-1.25-13.45-22.64-3.37-25.41,10.48,1,19.7,1,19.7,0-8.82,2.54-11.39c0,0-.76,4.22,0,6.75s0,.93,0,.93,2.34-11.05,13.62-7.88S133.33,285.18,133.33,285.18Z" style="fill:#263238"></path><path d="M134.85,287.56c8.38,2.56,9.71,7.86,7.69,16.68-2.52,11-7.25,18-17,12.46C112.24,309.23,120.94,283.32,134.85,287.56Z" style="fill:#ebb376"></path><path d="M137.27,302.12a18.47,18.47,0,0,0,1.37,4.22,2.4,2.4,0,0,1-2.49.28Z" style="fill:#d58745"></path><path d="M132.35,299.88c-.2.69-.73,1.15-1.19,1s-.68-.8-.49-1.49.73-1.15,1.19-1S132.54,299.18,132.35,299.88Z" style="fill:#263238"></path><path d="M131.66,298.37l1.67-.17S132.23,299.26,131.66,298.37Z" style="fill:#263238"></path><path d="M141,302.14c-.19.69-.72,1.15-1.18,1s-.68-.8-.49-1.49.73-1.15,1.19-1S141.2,301.45,141,302.14Z" style="fill:#263238"></path><path d="M140.32,300.63l1.67-.17S140.88,301.52,140.32,300.63Z" style="fill:#263238"></path><path d="M130,294.59a.37.37,0,0,1-.2-.67,4.85,4.85,0,0,1,4.37-.18.36.36,0,0,1,.18.47.36.36,0,0,1-.48.19,4.22,4.22,0,0,0-3.67.12A.31.31,0,0,1,130,294.59Z" style="fill:#263238"></path><path d="M143.35,297.64a.39.39,0,0,1-.28-.13,3.69,3.69,0,0,0-2.83-1.58.37.37,0,0,1-.38-.34.36.36,0,0,1,.34-.38,4.36,4.36,0,0,1,3.43,1.83.37.37,0,0,1,0,.52A.38.38,0,0,1,143.35,297.64Z" style="fill:#263238"></path><path d="M121.39,298.89s6-5.69,7-11.18c0,0,18.67-1.72,14.35,15.38,0,0,6.19-14.47-8.11-19.19S114,300.26,119.53,308.8C119.53,308.8,117.66,302.45,121.39,298.89Z" style="fill:#263238"></path><path d="M134.22,310.39h0a4.64,4.64,0,0,1-4.63-3.93.38.38,0,0,1,.32-.41.37.37,0,0,1,.4.32,3.87,3.87,0,0,0,3.93,3.3.36.36,0,0,1,0,.72Z" style="fill:#263238"></path><path d="M119.94,297.21a.25.25,0,0,0,.13.28l.06,0,8.53,2a3.7,3.7,0,0,0,2.15,4,4.46,4.46,0,0,0,5.72-1.55,3.15,3.15,0,0,0,.26-.56,1.46,1.46,0,0,1,1.1-.32.79.79,0,0,1,.44.51,3.72,3.72,0,0,0,2.16,3.93,4.47,4.47,0,0,0,5.72-1.56,3.63,3.63,0,0,0-1.72-5.16,4.46,4.46,0,0,0-5.72,1.55,3.15,3.15,0,0,0-.26.56,1.15,1.15,0,0,0-.43-.28,1.59,1.59,0,0,0-1.11.12,3.71,3.71,0,0,0-2.16-4,4.46,4.46,0,0,0-5.72,1.55,3.73,3.73,0,0,0-.33.74l-8.49-2A.27.27,0,0,0,119.94,297.21Zm19.3,3.31a3.91,3.91,0,0,1,5-1.36,3.18,3.18,0,0,1,1.5,4.52,3.9,3.9,0,0,1-5,1.35A3.17,3.17,0,0,1,139.24,300.52Zm-9.68-2a3.91,3.91,0,0,1,5-1.36,3.18,3.18,0,0,1,1.5,4.52,3.9,3.9,0,0,1-5,1.36A3.19,3.19,0,0,1,129.56,298.51Z" style="fill:#263238"></path><g style="opacity:0.30000000000000004;isolation:isolate"><path d="M119.94,297.21a.25.25,0,0,0,.13.28l.06,0,8.53,2a3.7,3.7,0,0,0,2.15,4,4.46,4.46,0,0,0,5.72-1.55,3.15,3.15,0,0,0,.26-.56,1.46,1.46,0,0,1,1.1-.32.79.79,0,0,1,.44.51,3.72,3.72,0,0,0,2.16,3.93,4.47,4.47,0,0,0,5.72-1.56,3.63,3.63,0,0,0-1.72-5.16,4.46,4.46,0,0,0-5.72,1.55,3.15,3.15,0,0,0-.26.56,1.15,1.15,0,0,0-.43-.28,1.59,1.59,0,0,0-1.11.12,3.71,3.71,0,0,0-2.16-4,4.46,4.46,0,0,0-5.72,1.55,3.73,3.73,0,0,0-.33.74l-8.49-2A.27.27,0,0,0,119.94,297.21Zm19.3,3.31a3.91,3.91,0,0,1,5-1.36,3.18,3.18,0,0,1,1.5,4.52,3.9,3.9,0,0,1-5,1.35A3.17,3.17,0,0,1,139.24,300.52Zm-9.68-2a3.91,3.91,0,0,1,5-1.36,3.18,3.18,0,0,1,1.5,4.52,3.9,3.9,0,0,1-5,1.36A3.19,3.19,0,0,1,129.56,298.51Z" style="fill:#fff"></path></g><path d="M122.22,301.07a3.84,3.84,0,0,0-2.93-4.56c-2.68-.51-5.55,4.44.52,7.69C120.68,304.67,121.48,303.92,122.22,301.07Z" style="fill:#ebb376"></path><path d="M106,326.82S107,348.2,108.81,353s20.69,22.48,20.69,22.48,5.27-1.17,6.14-.83,5.9,5,5.9,5H127l-1.27-2.24s-19.54-14.48-21.69-17.93c-1.59-2.55-6.7-28.52-6.7-28.52Z" style="fill:#ebb376"></path><path d="M102.13,315.88c3.39-1.76,5,3.91,7.07,15.38a120.63,120.63,0,0,1,1.69,21.95l2.9,5.15-7.32,6.74a31.42,31.42,0,0,1-7.71-11.89C96.5,346.31,90.27,322.07,102.13,315.88Z" style="fill:#263238"></path><path d="M102.13,315.88c3.39-1.76,5,3.91,7.07,15.38a120.63,120.63,0,0,1,1.69,21.95l2.9,5.15-7.32,6.74a31.42,31.42,0,0,1-7.71-11.89C96.5,346.31,90.27,322.07,102.13,315.88Z" style="fill:#fff;opacity:0.1;isolation:isolate"></path><polygon points="104.56 365.1 113.79 356.85 115.97 359.9 107.72 368 104.56 365.1" style="fill:#14B8A6"></polygon><polygon points="104.56 365.1 113.79 356.85 115.97 359.9 107.72 368 104.56 365.1" style="fill:#fff;opacity:0.4;isolation:isolate"></polygon></g></svg>