<svg xmlns="http://www.w3.org/2000/svg" width="400" height="106.462" viewBox="0 0 400 106.462"><g fill-rule="evenodd"><path d="M51.667 8.946c-1.851.104-4.3.416-6.25.796-1.1.215-2.284.44-2.63.499-6.24 1.078-17.191 7.862-21.537 13.342a44.54 44.54 0 0 1-1.426 1.69c-9.215 10.31-12.014 28.85-6.469 42.86 3.272 8.267 9.166 15.573 16.395 20.324L32 89.936c1.142.751 6.122 2.928 8.538 3.731 13.197 4.389 28.665 1.801 39.527-6.614a99.794 99.794 0 0 1 1.924-1.458c1.219-.885 5.45-5.354 6.643-7.015 2.407-3.353 5.373-8.623 5.892-10.47.107-.381.476-1.556.819-2.61 2.402-7.374 2.711-16.158.828-23.474-1.489-5.782-2.99-9.199-6.03-13.732-.352-.526-.641-1-.641-1.053 0-.091-.81-1.227-1.004-1.408a86.947 86.947 0 0 1-1.363-1.596C82 18.14 74.798 13.342 66.917 10.769c-2.146-.701-6.916-1.532-10.103-1.761-2.3-.164-3.132-.174-5.147-.062m5.416 3.724c6.85.633 12.954 2.712 18.325 6.244 1.188.781 2.205 1.419 2.261 1.419.13 0 2.065 1.733 4.325 3.874 7.891 7.473 12.629 20.009 11.686 30.921-.446 5.161-1.25 8.131-3.922 14.496-.838 1.996-3.031 5.392-5.182 8.025-.784.959-2.963 3.351-3.057 3.355-.098.004-.74.552-2.019 1.723-7.705 7.056-20.863 10.679-32 8.811-1.238-.207-2.513-.42-2.833-.472-6.669-1.09-16.055-7.012-21.502-13.566-.571-.687-1.09-1.288-1.152-1.333-.62-.456-4.047-6.473-4.858-8.529a38.79 38.79 0 0 0-.647-1.541c-.323-.716-.407-1.001-1.081-3.68-3.868-15.377 1.453-31.558 13.5-41.048.727-.574 1.414-1.116 1.524-1.206.111-.09.271-.163.355-.163.084 0 .248-.115.365-.255.116-.141.88-.668 1.696-1.173 7.249-4.485 16.131-6.649 24.216-5.902m-6.166 21.322a121.753 121.753 0 0 1-6.5 1.877c-2.295.585-7.102 2.016-12.75 3.796-1.421.448-2.913.9-3.316 1.004-4.281 1.11-5.716 3.779-2.625 4.883 1.154.412 3.853 1.473 3.923 1.542.036.036-.09.498-.279 1.027a46.185 46.185 0 0 0-.688 2.14c-.216.739-.506 1.328-.779 1.583-1.278 1.194-1.157 3.697.215 4.466.276.154.254.323-.354 2.636C26.649 63.191 26 66.554 26 68.089v.75l4.292-.045 4.291-.044-.05-.948c-.047-.885-.716-4.365-1.798-9.345l-.462-2.126.427-.457c1.175-1.26 1.088-2.848-.216-3.945l-.528-.444.814-1.574c.447-.865.884-1.575.97-1.576.085-.001 1.735.482 3.666 1.072 1.931.591 3.736 1.123 4.011 1.183.739.162 3.921 1.139 7.416 2.279 4.584 1.495 5 1.497 9.667.047a495.378 495.378 0 0 1 5.583-1.701c7.236-2.125 12.772-3.893 17.084-5.457 4.025-1.459 3.038-3.775-2.2-5.158-.486-.128-3.059-.885-5.717-1.681-7.714-2.311-7.904-2.367-9.917-2.892-3.532-.923-5.571-1.49-7.228-2.01-2.107-.662-3.177-.667-5.188-.025m-13 17.216c-.092.264-1.038 8.176-1.07 8.954-.014.318-.135 1.363-.269 2.321-.367 2.614-.448 2.383 1.214 3.458 10.854 7.022 21.015 7.13 32.125.344 2.411-1.473 2.263-.889 1.599-6.295-.275-2.24-.628-5.18-.785-6.532-.173-1.505-.354-2.455-.466-2.451-.1.004-.444.106-.765.226-15.86 5.932-16.747 5.93-30.966-.071-.49-.207-.53-.204-.617.046" fill="#04acac"/><path d="M276.667 59.25v18.583h3.833v-16.95l4.625-.102c6.353-.138 8.074-.441 10.407-1.831 5.285-3.147 6.034-11.083 1.452-15.377-2.663-2.497-4.704-2.902-14.609-2.905l-5.708-.001V59.25M196.89 41.66c-2.055.489-3.321 2.497-2.985 4.734.746 4.976 8.337 4.314 8.337-.727 0-2.889-2.425-4.705-5.352-4.007m-72.993 1.181c-2.127.122-5.017.43-5.605.598-.276.079-.292 1.043-.292 17.239v17.155h8.167V65.728l2.375-.003c9.652-.013 15.174-4.883 14.562-12.843-.602-7.835-6.235-10.78-19.207-10.041m166.186 2.001c3.842.554 5.509 2.347 5.493 5.908-.022 4.788-2.289 6.066-10.784 6.078l-4.292.005V44.667l4.208.003c2.315.002 4.734.079 5.375.172m-159.322 4.339c2.943.539 4.604 2.548 4.35 5.263-.3 3.218-2.883 4.983-7.111 4.858l-1.75-.052-.044-5.032-.044-5.032.711-.064c1.515-.136 2.94-.115 3.888.059m183.549.653c-1.826.461-3.008 1.245-4.521 2.996l-.789.914v-3.411h-3.833v27.5h3.801l.081-8.208c.087-8.975.11-9.221 1.133-12.042 1.073-2.958 3.898-4.794 6.139-3.988.461.166.865.269.898.228.033-.04.488-.77 1.009-1.621l.949-1.549-.954-.437c-1.051-.481-2.833-.655-3.913-.382m17.825.004c-11.204 1.889-15.59 16.038-7.654 24.695 4.226 4.61 12.477 5.496 18.093 1.941 2.854-1.806 5.915-5.745 4.994-6.424-.785-.58-2.775-1.575-2.888-1.444-.069.079-.469.669-.889 1.311-5.802 8.867-17.828 6.045-19.359-4.542l-.103-.708h24.539l-.113-1.375c-.755-9.164-7.876-14.929-16.62-13.454m34.641.087c-2.812.559-4.519 1.472-6.568 3.514l-1.375 1.371v-4.477H355v37.5h3.833V73.741l.989.941c11.43 10.876 29.428-2.653 22.525-16.932-.69-1.426-.814-1.601-2.576-3.618-3.124-3.576-8.087-5.183-12.995-4.207m-207.102 2.09c-1.831.359-3.795 1.827-4.862 3.635-.664 1.124-.805 1.051-.81-.417a21.149 21.149 0 0 0-.109-1.709l-.107-1.024h-6.837l.109 1.776c.06.977.109 6.677.109 12.667v10.89h7.98l.052-7.212.051-7.212.551-1.12c1.044-2.118 3.709-3.159 6.514-2.543l.518.114v-7.815l-.773-.106c-.94-.129-1.418-.113-2.386.076m13.783.002c-2.726.301-7.303 1.797-7.285 2.381.009.284 1.419 4.915 1.53 5.027.054.053.462-.085.906-.307 4.66-2.334 10.392-1.702 10.392 1.145v.519l-1.897.102c-8.836.474-13.94 5.121-12.613 11.486 1.237 5.936 9.396 8.188 14.427 3.982l.833-.696.233 1.088.234 1.089h7.326l-.118-.791c-.065-.436-.175-4.392-.244-8.792-.115-7.388-.152-8.098-.475-9.276-1.454-5.29-6.124-7.742-13.249-6.957m47.796-.016c-2.137.384-3.987 1.371-5.231 2.789l-.817.931-.094-.652a56.208 56.208 0 0 1-.198-1.611l-.104-.958h-7.19l.107 1.024c.059.564.107 6.264.107 12.667v11.642H216v-7.922c0-6.631.04-8.018.248-8.514 1.187-2.842 4.59-3.704 6.415-1.626 1.116 1.271 1.082.977 1.136 9.937l.049 8.125h8.181l-.075-8.541c-.059-6.901-.125-8.827-.343-10.025-.913-5.025-5.385-8.162-10.358-7.266m24.83-.053c-2.716.238-8.083 1.781-8.083 2.323 0 .18 1.491 5.109 1.569 5.187.053.053.677-.176 1.388-.508 4.168-1.947 8.689-1.666 9.719.603.538 1.184.481 1.28-.751 1.28-9.397 0-14.958 5.032-13.285 12.022 1.362 5.691 9.491 7.608 14.327 3.377l.836-.732.197 1.167.197 1.166h3.669c3.332 0 3.66-.025 3.565-.273-.261-.679-.426-4.634-.428-10.254-.003-6.726-.088-7.574-.991-9.916-1.522-3.946-5.951-5.967-11.929-5.442m-51.965 12.76c-.084 13.32-.113 13.735-1.057 15.47-.551 1.013-2.121 1.884-3.936 2.185-1.337.221-1.264-.144-.761 3.785l.371 2.897 1.436-.102c5.134-.364 8.712-2.359 10.38-5.786 1.491-3.063 1.615-4.53 1.616-19.032V52.5h-7.971l-.078 12.208m142.805-11.124c3.707.937 6.752 3.826 7.508 7.124l.105.459h-9.851c-5.419 0-9.852-.025-9.852-.055 0-.137.913-2.28 1.29-3.028 1.754-3.479 6.694-5.537 10.8-4.5m35.41.231c8.857 2.804 10.093 15.055 2.004 19.861-6.98 4.147-15.763-1.112-15.741-9.426.018-7.325 6.944-12.586 13.737-10.435M179.141 68.268l-.058 2.268-.866.797c-2.431 2.235-5.745 1.445-5.771-1.377-.023-2.332 2.321-3.864 6.029-3.941l.724-.015-.058 2.268m72.156-.389c-.108 2.437-.679 3.448-2.472 4.376-2.563 1.325-5.303-.92-4.314-3.536.583-1.543 3.038-2.655 5.971-2.704l.898-.015-.083 1.879" fill="#343434"/></g></svg>